PathFileType	4	(X/Y/Z)	C:\Users\Basilio\Documents\Thesis Gigler\squatting_fais\c3dfiles\039\SLS_pre_back3\markers_experimental.trc
DataRate	CameraRate	NumFrames	NumMarkers	Units	OrigDataRate	OrigDataStartFrame	OrigNumFrames
200.000000	200.000000	4	64	mm	200.000000	1631	2175
Frame#	Time	FHD			LBHD			RBHD			C7			T10			CLAV			LSHO			LUUPA			LMUPA			LDUPA			LLEP			LMEP			LRAD			LUL			LRFIN			RSHO			RUPA1			RMUPA			RDUPA			RLEP			RMEP			RRAD			RUL			RUFIN			LASI			RASI			USACR			LSACR			RSACR			LTHI1			LTHI2			LTHI3			LTHI4			LLFC			LMFC			LTIB1			LTIB2			LTIB3			LTIB4			LLMAL			LMMAL			LHEE			LMT1			LMT2			LMT5			RTHI			RTHI2			RTHI3			RTHI4			RLFC			RMFC			RTIB1			RTIB2			RTIB3			RTIB4			RLMAL			RMMAL			RHEE			RMT1			RMT2			RMT5			*61			*62			*63			
		X1	Y1	Z1	X2	Y2	Z2	X3	Y3	Z3	X4	Y4	Z4	X5	Y5	Z5	X6	Y6	Z6	X7	Y7	Z7	X8	Y8	Z8	X9	Y9	Z9	X10	Y10	Z10	X11	Y11	Z11	X12	Y12	Z12	X13	Y13	Z13	X14	Y14	Z14	X15	Y15	Z15	X16	Y16	Z16	X17	Y17	Z17	X18	Y18	Z18	X19	Y19	Z19	X20	Y20	Z20	X21	Y21	Z21	X22	Y22	Z22	X23	Y23	Z23	X24	Y24	Z24	X25	Y25	Z25	X26	Y26	Z26	X27	Y27	Z27	X28	Y28	Z28	X29	Y29	Z29	X30	Y30	Z30	X31	Y31	Z31	X32	Y32	Z32	X33	Y33	Z33	X34	Y34	Z34	X35	Y35	Z35	X36	Y36	Z36	X37	Y37	Z37	X38	Y38	Z38	X39	Y39	Z39	X40	Y40	Z40	X41	Y41	Z41	X42	Y42	Z42	X43	Y43	Z43	X44	Y44	Z44	X45	Y45	Z45	X46	Y46	Z46	X47	Y47	Z47	X48	Y48	Z48	X49	Y49	Z49	X50	Y50	Z50	X51	Y51	Z51	X52	Y52	Z52	X53	Y53	Z53	X54	Y54	Z54	X55	Y55	Z55	X56	Y56	Z56	X57	Y57	Z57	X58	Y58	Z58	X59	Y59	Z59	X60	Y60	Z60	X61	Y61	Z61	X62	Y62	Z62	X63	Y63	Z63	X64	Y64	Z64	

1632	8.154999999999999	-221.7257232666016	1701.05029296875	-679.6004638671876	-382.6530456542969	1682.235595703125	-797.0957031250002	-353.3956909179688	1685.4296875	-658.6496582031251	-430.5383605957032	1518.544799804688	-729.9750976562501	-485.5301208496095	1222.225830078125	-769.935729980469	nan	nan	nan	-362.9893188476563	1532.23388671875	-886.2197875976565	-196.1184387207032	1493.544677734375	-995.692321777344	-173.5473022460938	1526.558837890625	-964.6922607421877	-127.1650390625	1502.76123046875	-993.6942138671877	-60.41754531860353	1510.692749023438	-988.0181884765627	-56.1227378845215	1441.702270507813	-952.669860839844	216.4571380615235	1544.488891601563	-898.5259399414065	216.7129058837891	1550.289916992188	-974.8342895507815	292.5065002441407	1590.284057617188	-892.5171508789065	-296.3275146484376	1512.417358398438	-572.0426025390626	-137.8837127685547	1443.535888671875	-472.0654602050782	-110.6820220947266	1477.984741210938	-496.0983886718751	-68.24098968505861	1441.15869140625	-473.0877380371095	-4.96242904663086	1456.253784179688	-483.845184326172	0.7147949337959291	1390.408447265625	-525.8868408203126	278.4319763183594	1509.595092773438	-579.5825805664064	283.9714965820313	1499.963256835938	-503.9088134765626	357.4878540039063	1555.747924804688	-579.8838500976564	-363.0198974609376	1018.560485839844	-894.630798339844	-359.8974609375001	1012.344787597656	-673.1838378906251	-531.0692138671876	1096.046997070313	-778.1377563476565	-540.7832031250001	1064.856811523438	-805.7383422851565	-539.7440795898439	1064.710327148438	-746.4292602539064	-380.8782958984376	759.1406250000001	-1003.279479980469	-327.4601440429688	694.6248168945314	-1021.921630859375	-281.0940551757813	705.7313842773439	-1015.722473144531	-338.9498291015626	633.2863159179689	-1011.536254882813	-313.6574707031251	552.5007934570314	-1009.506164550781	-276.5587768554688	506.581024169922	-906.033630371094	-395.248504638672	446.3553161621095	-971.1340942382815	-456.7220764160157	509.2930603027345	-989.3112792968752	-451.067596435547	467.4720153808595	-981.3970336914065	-513.6310424804689	447.286834716797	-924.173767089844	-702.1328125000001	473.3557434082032	-899.2287597656252	-658.2882080078126	457.5547485351564	-825.5879516601565	-719.7103881835939	543.5488281250001	-853.4700317382815	-720.7318725585939	318.9128723144532	-787.8065185546877	-751.0363769531251	318.1969299316407	-818.755310058594	-802.9777832031252	359.0129699707032	-843.855407714844	-331.1953735351563	755.8049926757814	-615.3385620117189	-272.9059448242188	722.3786621093751	-617.6478881835939	-244.7747955322266	737.5586547851564	-624.2219848632814	-266.7810363769532	638.0948486328126	-632.6826782226564	-252.3050689697266	511.1076049804689	-668.6176147460939	-223.8493652343751	517.9564208984376	-781.852722167969	-244.6347045898438	307.7060241699219	-714.7299804687501	-339.7527465820313	256.4326171875001	-709.3506469726564	-295.8989257812501	240.6981048583985	-716.4929809570314	-286.8345031738282	194.3121643066407	-754.6227416992189	-368.0235595703126	113.3191146850586	-740.9693603515626	-338.3119506835938	135.4384460449219	-824.6055908203127	-439.6774291992189	95.81700897216798	-794.9333496093752	-214.6591033935547	56.08946990966798	-806.5041503906252	-218.030014038086	57.232723236084	-760.8075561523439	-273.4542541503907	36.3690528869629	-710.7126464843751	nan	nan	nan	nan	nan	nan	nan	nan	nan	
1633	8.16	-222.1115112304688	1702.798950195313	-679.4243164062501	-383.2870483398438	1683.529174804688	-796.5574951171877	-353.7856445312501	1686.715698242188	-658.2510986328126	-430.7886962890626	1519.82958984375	-729.7856445312501	-485.2683105468751	1223.46923828125	-769.8410644531252	nan	nan	nan	-364.0372619628907	1533.53173828125	-886.0610351562502	-196.3590087890626	1495.046875	-995.5201416015627	-173.9202270507813	1528.040405273438	-964.6638793945315	-127.4158248901367	1504.124633789063	-993.6314697265627	-60.88122177124025	1512.15478515625	-987.9273071289065	-56.2104949951172	1443.039306640625	-952.9697265625002	216.0811462402344	1546.181518554688	-898.587829589844	216.3903045654297	1551.771118164063	-974.9232177734377	292.2541503906251	1591.576416015625	-892.5779418945315	-296.7262573242188	1513.7783203125	-571.7892456054689	-138.1520385742188	1444.863403320313	-472.0459594726564	-111.0508117675782	1479.36279296875	-495.6896057128907	-68.53652191162111	1442.557495117188	-472.916717529297	-5.131342411041261	1457.487670898438	-483.7254943847657	0.4773244261741639	1392.131103515625	-525.7348022460939	277.9648437500001	1511.190673828125	-579.3971557617189	283.7136535644532	1501.518920898438	-503.7724609375001	357.1570739746094	1557.150146484375	-579.6942749023439	-362.7135925292969	1020.167541503906	-894.6303710937502	-359.4244995117188	1013.611145019531	-672.7885742187501	-530.5171508789064	1096.792358398438	-777.8357543945315	-540.4146118164064	1065.893676757813	-805.5653076171877	-539.4824829101564	1065.830932617188	-746.3044433593751	-380.4594116210938	760.5167846679689	-1003.275573730469	-327.0981140136719	695.8561401367189	-1021.949157714844	-280.6163940429688	706.8889160156251	-1015.899230957031	-338.7300109863282	634.9678955078126	-1011.710571289063	-313.4014282226563	553.8185424804689	-1009.771423339844	-276.1408081054688	507.7195739746095	-906.6358642578127	-394.9028625488282	447.7732849121095	-971.4769287109377	-456.9757385253907	510.7156982421876	-989.808288574219	-450.8503417968751	468.6481933593751	-981.9357910156252	-513.2125244140626	448.4067993164064	-924.190612792969	-701.7299804687501	474.1111755371095	-899.3845825195315	-657.8702392578126	458.397186279297	-825.7564697265627	-719.3739624023439	543.9699096679689	-853.3252563476565	-720.0805664062501	319.4142761230469	-788.1763916015627	-750.5164794921876	318.5299072265626	-819.0078125000002	-802.318542480469	359.4813232421876	-844.0399169921877	-331.4860839843751	756.7569580078126	-614.8990478515626	-273.2544555664063	723.0964355468751	-617.2301635742189	-245.0497741699219	738.2330322265626	-623.5726928710939	-267.5901794433594	638.6964111328126	-632.3049926757814	-253.5722198486329	511.5898437500001	-668.0438842773439	-224.7092437744141	518.3416748046876	-781.4304809570315	-245.5766906738282	307.7531127929688	-714.2617797851564	-340.4185180664063	256.4931640625001	-709.1766967773439	-296.4411926269532	240.7840881347657	-716.0292968750001	-287.2777404785157	194.5632629394532	-753.9778442382814	-368.1566772460938	113.3059997558594	-740.6184692382814	-338.2517395019532	135.6629333496094	-824.0113525390627	-439.7457885742189	95.83543395996095	-794.8391113281252	-214.6630249023438	56.34358978271486	-806.240417480469	-218.1280975341797	57.30225372314455	-760.6251831054689	-273.5736389160157	36.28462600708009	-710.6243896484376	nan	nan	nan	nan	nan	nan	nan	nan	nan	
1634	8.165000000000001	-222.5945892333985	1704.202392578125	-679.1738281250001	-383.9006347656251	1684.9599609375	-796.1926879882815	-354.2502746582032	1688.3076171875	-657.8413696289064	-431.1752014160157	1521.23828125	-729.4790039062501	-485.1549682617189	1224.660400390625	-769.6255493164065	nan	nan	nan	-363.7554626464844	1535.086181640625	-885.7489013671877	-196.8505096435547	1496.449951171875	-995.414245605469	-174.2579650878907	1529.621337890625	-964.4919433593752	-127.9710083007813	1505.559204101563	-993.5701904296877	-61.09945297241212	1513.751953125	-987.929138183594	-56.70276641845705	1444.331420898438	-952.6587524414065	215.7445831298829	1547.62939453125	-898.5835571289065	215.9554901123047	1553.266967773438	-974.9378662109377	291.7108459472657	1593.375122070313	-892.7024536132815	-296.8363952636719	1515.144409179688	-571.4872436523439	-138.4490509033203	1446.124633789063	-471.683074951172	-111.1733016967774	1480.578979492188	-495.946502685547	-68.91577911376955	1443.642700195313	-472.5935974121095	-5.453447341918946	1458.925659179688	-483.466522216797	0.1638524532318116	1393.232543945313	-525.5596313476564	277.7560729980469	1512.609252929688	-579.1037597656251	283.3989257812501	1502.840698242188	-503.8693237304689	356.7745971679688	1558.746826171875	-579.3167114257814	-362.0322875976563	1021.401000976563	-894.4760742187502	-359.4022216796876	1014.730834960938	-672.9869995117189	-530.2439575195314	1098.269287109375	-777.8001098632815	-539.9137573242189	1067.208251953125	-805.426940917969	-538.8983764648439	1066.926635742188	-746.0454711914064	-380.2528686523438	761.9535522460939	-1003.256042480469	-326.8547973632813	697.3372192382814	-1022.159790039063	-280.4431152343751	708.3522338867189	-1016.127685546875	-338.4085998535157	636.1198120117189	-1012.008361816406	-313.1226501464844	555.1250610351564	-1010.118957519531	-275.9089050292969	509.0750427246095	-906.8769531250002	-394.8042907714845	448.5405578613282	-972.1714477539065	-456.7455139160157	511.843231201172	-990.0429687500002	-450.3288574218751	469.6458129882814	-982.1289062500002	-512.8555908203126	449.2781066894532	-925.0869140625002	-701.1464843750001	474.2407531738282	-899.4924926757815	-657.2700805664064	458.8642578125001	-825.9285278320315	-719.2293090820314	544.3254394531251	-853.342956542969	-719.3205566406251	319.6042785644532	-788.6526489257815	-749.7996215820314	318.8104553222657	-819.7260742187502	-801.7305297851565	359.7875061035157	-844.4254150390627	-331.8707885742188	757.7079467773439	-614.6193237304689	-273.7149047851563	723.6535644531251	-616.8245849609376	-245.4537506103516	738.8291015625001	-623.2030029296876	-268.4520263671876	639.3715820312501	-631.7925415039064	-254.6908874511719	512.1079711914064	-667.6477661132814	-225.4676971435547	518.6929321289064	-780.8994750976565	-246.3695068359376	307.8162841796876	-713.4208374023439	-340.9127502441407	256.6081542968751	-709.0357666015626	-297.0148925781251	241.0444946289063	-715.4869995117189	-287.8073425292969	194.7371673583985	-753.3052978515626	-368.2720336914063	113.2836532592774	-740.3746948242189	-338.3518676757813	135.8645935058594	-823.687194824219	-439.8333740234376	95.87634277343751	-794.6995239257815	-214.6937408447266	56.57334136962892	-806.0988769531252	-218.1691131591797	57.39558410644533	-760.5670776367189	-273.3680114746094	36.46089553833009	-710.4483642578126	nan	nan	nan	nan	nan	nan	nan	nan	nan	
1635	8.17	-223.0081481933594	1705.8212890625	-678.9868164062501	-384.5311889648439	1686.298706054688	-795.7014770507815	-354.7245483398438	1689.69921875	-657.5064086914064	-431.4453430175782	1522.610107421875	-729.1383056640626	-485.1015930175782	1225.877197265625	-769.5156860351565	nan	nan	nan	-364.5865783691407	1536.50537109375	-885.737731933594	-197.2835693359376	1497.822143554688	-995.2208251953127	-174.6944274902344	1530.967407226563	-964.3975830078127	-128.2384796142578	1507.116821289063	-993.4768066406252	-61.60628890991212	1515.12158203125	-987.8164672851565	-56.84310531616212	1446.001953125	-953.0767822265627	215.3027343750001	1549.230712890625	-898.752868652344	215.6822052001954	1554.748291015625	-974.9871215820315	291.4150390625001	1594.680053710938	-892.7315673828127	-297.2242431640626	1516.57275390625	-571.2222290039064	-138.5193328857422	1447.404174804688	-471.5435791015626	-111.3259658813477	1481.953369140625	-495.5575256347657	-69.03295898437501	1445.263549804688	-472.2985839843751	-5.627268314361573	1460.205688476563	-483.2396240234376	-0.2826983332633973	1394.267944335938	-525.7020874023439	277.2667846679688	1513.941162109375	-578.9951782226564	282.9654846191407	1503.994262695313	-504.1966552734376	356.4957885742188	1560.040771484375	-579.1599121093751	-361.5524597167969	1022.697998046875	-894.3598632812502	-358.5571594238282	1016.342834472656	-672.4140014648439	-529.8579101562501	1099.498413085938	-777.664489746094	-539.6099853515626	1068.294189453125	-805.269958496094	-538.0645751953126	1067.964111328125	-745.8555297851564	-379.7713623046876	763.2756347656251	-1003.277648925781	-326.5815734863282	698.8270263671876	-1022.338684082031	-280.5312194824219	710.2162475585939	-1016.435302734375	-338.1079711914063	637.5544433593751	-1012.170715332031	-312.9752502441407	556.5666503906251	-1010.393615722656	-275.4960327148438	510.2236328125001	-907.2882080078127	-394.817840576172	450.1513977050782	-972.085388183594	-456.5115661621095	513.1161499023439	-990.2716064453127	-450.116424560547	470.9199829101564	-982.5244750976565	-512.3152465820314	450.1289062500001	-925.0808715820315	-700.7670288085939	474.8477478027345	-899.5855102539065	-656.6666259765626	459.5355834960939	-825.9988403320315	-718.8547363281251	544.7730712890626	-853.317565917969	-718.5089111328126	320.1654968261719	-789.141296386719	-748.7125244140626	319.8345642089844	-820.1973266601565	-801.0344848632815	360.0829772949219	-844.7363281250002	-332.3300476074219	758.7816772460939	-614.2327270507814	-274.1601562500001	724.0077514648439	-616.0316772460939	-245.8610534667969	739.2938232421876	-622.7556152343751	-269.0885009765626	640.0173339843751	-631.5903930664064	-255.8379058837891	512.4693603515626	-666.9931640625001	-226.8004455566407	519.1216430664064	-780.073425292969	-247.1615600585938	308.2721252441407	-713.0426025390626	-341.5401611328126	256.7237243652344	-708.5072021484376	-297.5917053222657	241.3206939697266	-715.0016479492189	-288.1767578125001	194.9491882324219	-752.8949584960939	-368.4098815917969	113.2832641601563	-740.1207885742189	-338.4165039062501	136.0653839111328	-823.2944335937502	-439.8462524414064	95.87906646728517	-794.5197753906252	-214.7179412841797	56.82114791870119	-805.8533935546877	-218.1940917968751	57.47179794311525	-760.4213867187501	-273.3954772949219	36.28221130371094	-710.3272705078126	nan	nan	nan	nan	nan	nan	nan	nan	nan	
